<mxfile host="app.diagrams.net" modified="2023-10-19T07:52:30.659Z" agent="Mozilla/5.0 (Windows NT 10.0; Win64; x64) AppleWebKit/537.36 (KHTML, like Gecko) Chrome/118.0.0.0 Safari/537.36" etag="oyin6siFcW3-eqV9p0Ma" version="22.0.4" type="device">
  <diagram name="PÃ¡gina-1" id="ymHSCSZNpB9w1wfMmrl2">
    <mxGraphModel dx="1063" dy="530" grid="1" gridSize="10" guides="1" tooltips="1" connect="1" arrows="1" fold="1" page="1" pageScale="1" pageWidth="827" pageHeight="1169" math="0" shadow="0">
      <root>
        <mxCell id="0" />
        <mxCell id="1" parent="0" />
        <mxCell id="Bia6g73SPW5gVTmrHwiR-15" style="edgeStyle=none;shape=connector;rounded=0;orthogonalLoop=1;jettySize=auto;html=1;exitX=1;exitY=0;exitDx=0;exitDy=0;labelBackgroundColor=default;strokeColor=default;align=center;verticalAlign=middle;fontFamily=Helvetica;fontSize=12;fontColor=default;endArrow=none;" edge="1" parent="1" source="Bia6g73SPW5gVTmrHwiR-1" target="Bia6g73SPW5gVTmrHwiR-11">
          <mxGeometry relative="1" as="geometry" />
        </mxCell>
        <mxCell id="Bia6g73SPW5gVTmrHwiR-16" style="edgeStyle=none;shape=connector;rounded=0;orthogonalLoop=1;jettySize=auto;html=1;exitX=0.75;exitY=0;exitDx=0;exitDy=0;entryX=0.5;entryY=1;entryDx=0;entryDy=0;labelBackgroundColor=default;strokeColor=default;align=center;verticalAlign=middle;fontFamily=Helvetica;fontSize=12;fontColor=default;endArrow=none;" edge="1" parent="1" source="Bia6g73SPW5gVTmrHwiR-1" target="Bia6g73SPW5gVTmrHwiR-10">
          <mxGeometry relative="1" as="geometry" />
        </mxCell>
        <mxCell id="Bia6g73SPW5gVTmrHwiR-17" style="edgeStyle=none;shape=connector;rounded=0;orthogonalLoop=1;jettySize=auto;html=1;exitX=0.5;exitY=0;exitDx=0;exitDy=0;entryX=1;entryY=1;entryDx=0;entryDy=0;labelBackgroundColor=default;strokeColor=default;align=center;verticalAlign=middle;fontFamily=Helvetica;fontSize=12;fontColor=default;endArrow=none;" edge="1" parent="1" source="Bia6g73SPW5gVTmrHwiR-1" target="Bia6g73SPW5gVTmrHwiR-9">
          <mxGeometry relative="1" as="geometry" />
        </mxCell>
        <mxCell id="Bia6g73SPW5gVTmrHwiR-18" style="edgeStyle=none;shape=connector;rounded=0;orthogonalLoop=1;jettySize=auto;html=1;exitX=0.25;exitY=0;exitDx=0;exitDy=0;entryX=1;entryY=0.5;entryDx=0;entryDy=0;labelBackgroundColor=default;strokeColor=default;align=center;verticalAlign=middle;fontFamily=Helvetica;fontSize=12;fontColor=default;endArrow=none;" edge="1" parent="1" source="Bia6g73SPW5gVTmrHwiR-1" target="Bia6g73SPW5gVTmrHwiR-8">
          <mxGeometry relative="1" as="geometry" />
        </mxCell>
        <mxCell id="Bia6g73SPW5gVTmrHwiR-19" style="edgeStyle=none;shape=connector;rounded=0;orthogonalLoop=1;jettySize=auto;html=1;exitX=0;exitY=0;exitDx=0;exitDy=0;entryX=1;entryY=0;entryDx=0;entryDy=0;labelBackgroundColor=default;strokeColor=default;align=center;verticalAlign=middle;fontFamily=Helvetica;fontSize=12;fontColor=default;endArrow=none;" edge="1" parent="1" source="Bia6g73SPW5gVTmrHwiR-1" target="Bia6g73SPW5gVTmrHwiR-12">
          <mxGeometry relative="1" as="geometry" />
        </mxCell>
        <mxCell id="Bia6g73SPW5gVTmrHwiR-20" style="edgeStyle=none;shape=connector;rounded=0;orthogonalLoop=1;jettySize=auto;html=1;exitX=0;exitY=0.25;exitDx=0;exitDy=0;entryX=1;entryY=0;entryDx=0;entryDy=0;labelBackgroundColor=default;strokeColor=default;align=center;verticalAlign=middle;fontFamily=Helvetica;fontSize=12;fontColor=default;endArrow=none;" edge="1" parent="1" source="Bia6g73SPW5gVTmrHwiR-1" target="Bia6g73SPW5gVTmrHwiR-13">
          <mxGeometry relative="1" as="geometry" />
        </mxCell>
        <mxCell id="Bia6g73SPW5gVTmrHwiR-27" style="edgeStyle=none;shape=connector;rounded=0;orthogonalLoop=1;jettySize=auto;html=1;exitX=1;exitY=0.5;exitDx=0;exitDy=0;entryX=0;entryY=0.5;entryDx=0;entryDy=0;labelBackgroundColor=default;strokeColor=default;align=center;verticalAlign=middle;fontFamily=Helvetica;fontSize=12;fontColor=default;endArrow=none;" edge="1" parent="1" source="Bia6g73SPW5gVTmrHwiR-1" target="Bia6g73SPW5gVTmrHwiR-26">
          <mxGeometry relative="1" as="geometry" />
        </mxCell>
        <mxCell id="Bia6g73SPW5gVTmrHwiR-1" value="Alquiler" style="rounded=0;whiteSpace=wrap;html=1;fillColor=default;" vertex="1" parent="1">
          <mxGeometry x="310" y="250" width="110" height="50" as="geometry" />
        </mxCell>
        <mxCell id="Bia6g73SPW5gVTmrHwiR-22" style="edgeStyle=none;shape=connector;rounded=0;orthogonalLoop=1;jettySize=auto;html=1;exitX=0.5;exitY=1;exitDx=0;exitDy=0;entryX=0.5;entryY=0;entryDx=0;entryDy=0;labelBackgroundColor=default;strokeColor=default;align=center;verticalAlign=middle;fontFamily=Helvetica;fontSize=12;fontColor=default;endArrow=none;" edge="1" parent="1" source="Bia6g73SPW5gVTmrHwiR-2" target="Bia6g73SPW5gVTmrHwiR-21">
          <mxGeometry relative="1" as="geometry" />
        </mxCell>
        <mxCell id="Bia6g73SPW5gVTmrHwiR-2" value="Renovar" style="rhombus;whiteSpace=wrap;html=1;" vertex="1" parent="1">
          <mxGeometry x="315" y="330" width="100" height="60" as="geometry" />
        </mxCell>
        <mxCell id="Bia6g73SPW5gVTmrHwiR-6" value="" style="endArrow=none;html=1;rounded=0;labelBackgroundColor=default;strokeColor=default;align=center;verticalAlign=middle;fontFamily=Helvetica;fontSize=11;fontColor=default;shape=connector;entryX=0.5;entryY=1;entryDx=0;entryDy=0;exitX=0.5;exitY=0;exitDx=0;exitDy=0;" edge="1" parent="1" source="Bia6g73SPW5gVTmrHwiR-2" target="Bia6g73SPW5gVTmrHwiR-1">
          <mxGeometry width="50" height="50" relative="1" as="geometry">
            <mxPoint x="390" y="420" as="sourcePoint" />
            <mxPoint x="440" y="370" as="targetPoint" />
          </mxGeometry>
        </mxCell>
        <mxCell id="Bia6g73SPW5gVTmrHwiR-8" value="ID alquiler" style="ellipse;whiteSpace=wrap;html=1;strokeColor=default;align=center;verticalAlign=middle;fontFamily=Helvetica;fontSize=12;fontColor=default;fillColor=default;" vertex="1" parent="1">
          <mxGeometry x="200" y="200" width="90" height="50" as="geometry" />
        </mxCell>
        <mxCell id="Bia6g73SPW5gVTmrHwiR-9" value="Fecha inicio" style="ellipse;whiteSpace=wrap;html=1;strokeColor=default;align=center;verticalAlign=middle;fontFamily=Helvetica;fontSize=12;fontColor=default;fillColor=default;" vertex="1" parent="1">
          <mxGeometry x="260" y="160" width="90" height="50" as="geometry" />
        </mxCell>
        <mxCell id="Bia6g73SPW5gVTmrHwiR-10" value="Fecha de fin" style="ellipse;whiteSpace=wrap;html=1;strokeColor=default;align=center;verticalAlign=middle;fontFamily=Helvetica;fontSize=12;fontColor=default;fillColor=default;" vertex="1" parent="1">
          <mxGeometry x="350" y="150" width="90" height="50" as="geometry" />
        </mxCell>
        <mxCell id="Bia6g73SPW5gVTmrHwiR-11" value="Importe mensual" style="ellipse;whiteSpace=wrap;html=1;strokeColor=default;align=center;verticalAlign=middle;fontFamily=Helvetica;fontSize=12;fontColor=default;fillColor=default;" vertex="1" parent="1">
          <mxGeometry x="420" y="180" width="90" height="50" as="geometry" />
        </mxCell>
        <mxCell id="Bia6g73SPW5gVTmrHwiR-12" value="Fianza" style="ellipse;whiteSpace=wrap;html=1;strokeColor=default;align=center;verticalAlign=middle;fontFamily=Helvetica;fontSize=12;fontColor=default;fillColor=default;" vertex="1" parent="1">
          <mxGeometry x="190" y="250" width="90" height="50" as="geometry" />
        </mxCell>
        <mxCell id="Bia6g73SPW5gVTmrHwiR-13" value="Fecha de la firma" style="ellipse;whiteSpace=wrap;html=1;strokeColor=default;align=center;verticalAlign=middle;fontFamily=Helvetica;fontSize=12;fontColor=default;fillColor=default;" vertex="1" parent="1">
          <mxGeometry x="220" y="300" width="90" height="50" as="geometry" />
        </mxCell>
        <mxCell id="Bia6g73SPW5gVTmrHwiR-14" style="edgeStyle=none;shape=connector;rounded=0;orthogonalLoop=1;jettySize=auto;html=1;exitX=0.5;exitY=1;exitDx=0;exitDy=0;labelBackgroundColor=default;strokeColor=default;align=center;verticalAlign=middle;fontFamily=Helvetica;fontSize=12;fontColor=default;endArrow=none;" edge="1" parent="1" source="Bia6g73SPW5gVTmrHwiR-11" target="Bia6g73SPW5gVTmrHwiR-11">
          <mxGeometry relative="1" as="geometry" />
        </mxCell>
        <mxCell id="Bia6g73SPW5gVTmrHwiR-43" style="edgeStyle=none;shape=connector;rounded=0;orthogonalLoop=1;jettySize=auto;html=1;exitX=1;exitY=0.5;exitDx=0;exitDy=0;entryX=0;entryY=0.5;entryDx=0;entryDy=0;labelBackgroundColor=default;strokeColor=default;align=center;verticalAlign=middle;fontFamily=Helvetica;fontSize=12;fontColor=default;endArrow=none;" edge="1" parent="1" source="Bia6g73SPW5gVTmrHwiR-21" target="Bia6g73SPW5gVTmrHwiR-42">
          <mxGeometry relative="1" as="geometry" />
        </mxCell>
        <mxCell id="Bia6g73SPW5gVTmrHwiR-53" style="edgeStyle=none;shape=connector;rounded=0;orthogonalLoop=1;jettySize=auto;html=1;exitX=0;exitY=0;exitDx=0;exitDy=0;entryX=0.5;entryY=1;entryDx=0;entryDy=0;labelBackgroundColor=default;strokeColor=default;align=center;verticalAlign=middle;fontFamily=Helvetica;fontSize=12;fontColor=default;endArrow=none;" edge="1" parent="1" source="Bia6g73SPW5gVTmrHwiR-21" target="Bia6g73SPW5gVTmrHwiR-46">
          <mxGeometry relative="1" as="geometry" />
        </mxCell>
        <mxCell id="Bia6g73SPW5gVTmrHwiR-54" style="edgeStyle=none;shape=connector;rounded=0;orthogonalLoop=1;jettySize=auto;html=1;exitX=0;exitY=0.25;exitDx=0;exitDy=0;entryX=1;entryY=1;entryDx=0;entryDy=0;labelBackgroundColor=default;strokeColor=default;align=center;verticalAlign=middle;fontFamily=Helvetica;fontSize=12;fontColor=default;endArrow=none;" edge="1" parent="1" source="Bia6g73SPW5gVTmrHwiR-21" target="Bia6g73SPW5gVTmrHwiR-47">
          <mxGeometry relative="1" as="geometry" />
        </mxCell>
        <mxCell id="Bia6g73SPW5gVTmrHwiR-55" style="edgeStyle=none;shape=connector;rounded=0;orthogonalLoop=1;jettySize=auto;html=1;exitX=0;exitY=0.5;exitDx=0;exitDy=0;entryX=1;entryY=0.5;entryDx=0;entryDy=0;labelBackgroundColor=default;strokeColor=default;align=center;verticalAlign=middle;fontFamily=Helvetica;fontSize=12;fontColor=default;endArrow=none;" edge="1" parent="1" source="Bia6g73SPW5gVTmrHwiR-21" target="Bia6g73SPW5gVTmrHwiR-48">
          <mxGeometry relative="1" as="geometry" />
        </mxCell>
        <mxCell id="Bia6g73SPW5gVTmrHwiR-56" style="edgeStyle=none;shape=connector;rounded=0;orthogonalLoop=1;jettySize=auto;html=1;exitX=0;exitY=0.75;exitDx=0;exitDy=0;entryX=1;entryY=0;entryDx=0;entryDy=0;labelBackgroundColor=default;strokeColor=default;align=center;verticalAlign=middle;fontFamily=Helvetica;fontSize=12;fontColor=default;endArrow=none;" edge="1" parent="1" source="Bia6g73SPW5gVTmrHwiR-21" target="Bia6g73SPW5gVTmrHwiR-49">
          <mxGeometry relative="1" as="geometry" />
        </mxCell>
        <mxCell id="Bia6g73SPW5gVTmrHwiR-58" style="edgeStyle=none;shape=connector;rounded=0;orthogonalLoop=1;jettySize=auto;html=1;exitX=0;exitY=1;exitDx=0;exitDy=0;entryX=0.5;entryY=0;entryDx=0;entryDy=0;labelBackgroundColor=default;strokeColor=default;align=center;verticalAlign=middle;fontFamily=Helvetica;fontSize=12;fontColor=default;endArrow=none;" edge="1" parent="1" source="Bia6g73SPW5gVTmrHwiR-21" target="Bia6g73SPW5gVTmrHwiR-50">
          <mxGeometry relative="1" as="geometry" />
        </mxCell>
        <mxCell id="Bia6g73SPW5gVTmrHwiR-59" style="edgeStyle=none;shape=connector;rounded=0;orthogonalLoop=1;jettySize=auto;html=1;exitX=0.5;exitY=1;exitDx=0;exitDy=0;entryX=0;entryY=0;entryDx=0;entryDy=0;labelBackgroundColor=default;strokeColor=default;align=center;verticalAlign=middle;fontFamily=Helvetica;fontSize=12;fontColor=default;endArrow=none;" edge="1" parent="1" source="Bia6g73SPW5gVTmrHwiR-21" target="Bia6g73SPW5gVTmrHwiR-51">
          <mxGeometry relative="1" as="geometry" />
        </mxCell>
        <mxCell id="Bia6g73SPW5gVTmrHwiR-60" style="edgeStyle=none;shape=connector;rounded=0;orthogonalLoop=1;jettySize=auto;html=1;exitX=1;exitY=1;exitDx=0;exitDy=0;entryX=0;entryY=0.5;entryDx=0;entryDy=0;labelBackgroundColor=default;strokeColor=default;align=center;verticalAlign=middle;fontFamily=Helvetica;fontSize=12;fontColor=default;endArrow=none;" edge="1" parent="1" source="Bia6g73SPW5gVTmrHwiR-21" target="Bia6g73SPW5gVTmrHwiR-52">
          <mxGeometry relative="1" as="geometry" />
        </mxCell>
        <mxCell id="Bia6g73SPW5gVTmrHwiR-63" style="edgeStyle=none;shape=connector;rounded=0;orthogonalLoop=1;jettySize=auto;html=1;exitX=0.25;exitY=1;exitDx=0;exitDy=0;entryX=0.5;entryY=0;entryDx=0;entryDy=0;labelBackgroundColor=default;strokeColor=default;align=center;verticalAlign=middle;fontFamily=Helvetica;fontSize=12;fontColor=default;endArrow=none;" edge="1" parent="1" source="Bia6g73SPW5gVTmrHwiR-21" target="Bia6g73SPW5gVTmrHwiR-61">
          <mxGeometry relative="1" as="geometry" />
        </mxCell>
        <mxCell id="Bia6g73SPW5gVTmrHwiR-21" value="Vivienda" style="rounded=0;whiteSpace=wrap;html=1;fillColor=default;" vertex="1" parent="1">
          <mxGeometry x="310" y="420" width="110" height="50" as="geometry" />
        </mxCell>
        <mxCell id="Bia6g73SPW5gVTmrHwiR-23" value="0,n" style="text;html=1;strokeColor=none;fillColor=none;align=center;verticalAlign=middle;whiteSpace=wrap;rounded=0;fontSize=12;fontFamily=Helvetica;fontColor=default;" vertex="1" parent="1">
          <mxGeometry x="355" y="300" width="60" height="30" as="geometry" />
        </mxCell>
        <mxCell id="Bia6g73SPW5gVTmrHwiR-24" value="1,1" style="text;html=1;strokeColor=none;fillColor=none;align=center;verticalAlign=middle;whiteSpace=wrap;rounded=0;fontSize=12;fontFamily=Helvetica;fontColor=default;" vertex="1" parent="1">
          <mxGeometry x="365" y="390" width="60" height="30" as="geometry" />
        </mxCell>
        <mxCell id="Bia6g73SPW5gVTmrHwiR-25" value="0,N" style="text;html=1;strokeColor=none;fillColor=none;align=center;verticalAlign=middle;whiteSpace=wrap;rounded=0;fontSize=12;fontFamily=Helvetica;fontColor=default;" vertex="1" parent="1">
          <mxGeometry x="270" y="345" width="60" height="30" as="geometry" />
        </mxCell>
        <mxCell id="Bia6g73SPW5gVTmrHwiR-29" style="edgeStyle=none;shape=connector;rounded=0;orthogonalLoop=1;jettySize=auto;html=1;exitX=1;exitY=0.5;exitDx=0;exitDy=0;entryX=0;entryY=0.5;entryDx=0;entryDy=0;labelBackgroundColor=default;strokeColor=default;align=center;verticalAlign=middle;fontFamily=Helvetica;fontSize=12;fontColor=default;endArrow=none;" edge="1" parent="1" source="Bia6g73SPW5gVTmrHwiR-26" target="Bia6g73SPW5gVTmrHwiR-28">
          <mxGeometry relative="1" as="geometry" />
        </mxCell>
        <mxCell id="Bia6g73SPW5gVTmrHwiR-26" value="Alquilar" style="rhombus;whiteSpace=wrap;html=1;" vertex="1" parent="1">
          <mxGeometry x="480" y="245" width="100" height="60" as="geometry" />
        </mxCell>
        <mxCell id="Bia6g73SPW5gVTmrHwiR-36" style="edgeStyle=none;shape=connector;rounded=0;orthogonalLoop=1;jettySize=auto;html=1;exitX=1;exitY=0.25;exitDx=0;exitDy=0;entryX=0;entryY=0.5;entryDx=0;entryDy=0;labelBackgroundColor=default;strokeColor=default;align=center;verticalAlign=middle;fontFamily=Helvetica;fontSize=12;fontColor=default;endArrow=none;" edge="1" parent="1" source="Bia6g73SPW5gVTmrHwiR-28" target="Bia6g73SPW5gVTmrHwiR-33">
          <mxGeometry relative="1" as="geometry" />
        </mxCell>
        <mxCell id="Bia6g73SPW5gVTmrHwiR-37" style="edgeStyle=none;shape=connector;rounded=0;orthogonalLoop=1;jettySize=auto;html=1;exitX=1;exitY=0;exitDx=0;exitDy=0;entryX=0.5;entryY=1;entryDx=0;entryDy=0;labelBackgroundColor=default;strokeColor=default;align=center;verticalAlign=middle;fontFamily=Helvetica;fontSize=12;fontColor=default;endArrow=none;" edge="1" parent="1" source="Bia6g73SPW5gVTmrHwiR-28" target="Bia6g73SPW5gVTmrHwiR-32">
          <mxGeometry relative="1" as="geometry" />
        </mxCell>
        <mxCell id="Bia6g73SPW5gVTmrHwiR-38" style="edgeStyle=none;shape=connector;rounded=0;orthogonalLoop=1;jettySize=auto;html=1;exitX=0.75;exitY=0;exitDx=0;exitDy=0;entryX=1;entryY=1;entryDx=0;entryDy=0;labelBackgroundColor=default;strokeColor=default;align=center;verticalAlign=middle;fontFamily=Helvetica;fontSize=12;fontColor=default;endArrow=none;" edge="1" parent="1" source="Bia6g73SPW5gVTmrHwiR-28" target="Bia6g73SPW5gVTmrHwiR-31">
          <mxGeometry relative="1" as="geometry" />
        </mxCell>
        <mxCell id="Bia6g73SPW5gVTmrHwiR-39" style="edgeStyle=none;shape=connector;rounded=0;orthogonalLoop=1;jettySize=auto;html=1;exitX=0.5;exitY=0;exitDx=0;exitDy=0;entryX=1;entryY=0.5;entryDx=0;entryDy=0;labelBackgroundColor=default;strokeColor=default;align=center;verticalAlign=middle;fontFamily=Helvetica;fontSize=12;fontColor=default;endArrow=none;" edge="1" parent="1" source="Bia6g73SPW5gVTmrHwiR-28" target="Bia6g73SPW5gVTmrHwiR-30">
          <mxGeometry relative="1" as="geometry" />
        </mxCell>
        <mxCell id="Bia6g73SPW5gVTmrHwiR-40" style="edgeStyle=none;shape=connector;rounded=0;orthogonalLoop=1;jettySize=auto;html=1;exitX=0;exitY=1;exitDx=0;exitDy=0;entryX=0.5;entryY=0;entryDx=0;entryDy=0;labelBackgroundColor=default;strokeColor=default;align=center;verticalAlign=middle;fontFamily=Helvetica;fontSize=12;fontColor=default;endArrow=none;" edge="1" parent="1" source="Bia6g73SPW5gVTmrHwiR-28" target="Bia6g73SPW5gVTmrHwiR-34">
          <mxGeometry relative="1" as="geometry" />
        </mxCell>
        <mxCell id="Bia6g73SPW5gVTmrHwiR-41" style="edgeStyle=none;shape=connector;rounded=0;orthogonalLoop=1;jettySize=auto;html=1;exitX=0.5;exitY=1;exitDx=0;exitDy=0;entryX=0;entryY=0;entryDx=0;entryDy=0;labelBackgroundColor=default;strokeColor=default;align=center;verticalAlign=middle;fontFamily=Helvetica;fontSize=12;fontColor=default;endArrow=none;" edge="1" parent="1" source="Bia6g73SPW5gVTmrHwiR-28" target="Bia6g73SPW5gVTmrHwiR-35">
          <mxGeometry relative="1" as="geometry" />
        </mxCell>
        <mxCell id="Bia6g73SPW5gVTmrHwiR-28" value="Inquilino" style="rounded=0;whiteSpace=wrap;html=1;fillColor=default;" vertex="1" parent="1">
          <mxGeometry x="640" y="250" width="110" height="50" as="geometry" />
        </mxCell>
        <mxCell id="Bia6g73SPW5gVTmrHwiR-30" value="NIF" style="ellipse;whiteSpace=wrap;html=1;strokeColor=default;align=center;verticalAlign=middle;fontFamily=Helvetica;fontSize=12;fontColor=default;fillColor=default;" vertex="1" parent="1">
          <mxGeometry x="560" y="190" width="90" height="50" as="geometry" />
        </mxCell>
        <mxCell id="Bia6g73SPW5gVTmrHwiR-31" value="ID inquilino" style="ellipse;whiteSpace=wrap;html=1;strokeColor=default;align=center;verticalAlign=middle;fontFamily=Helvetica;fontSize=12;fontColor=default;fillColor=default;" vertex="1" parent="1">
          <mxGeometry x="650" y="170" width="90" height="50" as="geometry" />
        </mxCell>
        <mxCell id="Bia6g73SPW5gVTmrHwiR-32" value="Nombre" style="ellipse;whiteSpace=wrap;html=1;strokeColor=default;align=center;verticalAlign=middle;fontFamily=Helvetica;fontSize=12;fontColor=default;fillColor=default;" vertex="1" parent="1">
          <mxGeometry x="740" y="180" width="90" height="50" as="geometry" />
        </mxCell>
        <mxCell id="Bia6g73SPW5gVTmrHwiR-33" value="Apellidos" style="ellipse;whiteSpace=wrap;html=1;strokeColor=default;align=center;verticalAlign=middle;fontFamily=Helvetica;fontSize=12;fontColor=default;fillColor=default;" vertex="1" parent="1">
          <mxGeometry x="780" y="230" width="90" height="50" as="geometry" />
        </mxCell>
        <mxCell id="Bia6g73SPW5gVTmrHwiR-34" value="Fecha de nacimiento" style="ellipse;whiteSpace=wrap;html=1;strokeColor=default;align=center;verticalAlign=middle;fontFamily=Helvetica;fontSize=12;fontColor=default;fillColor=default;" vertex="1" parent="1">
          <mxGeometry x="560" y="310" width="90" height="50" as="geometry" />
        </mxCell>
        <mxCell id="Bia6g73SPW5gVTmrHwiR-35" value="TÃ©lefono" style="ellipse;whiteSpace=wrap;html=1;strokeColor=default;align=center;verticalAlign=middle;fontFamily=Helvetica;fontSize=12;fontColor=default;fillColor=default;" vertex="1" parent="1">
          <mxGeometry x="650" y="330" width="90" height="50" as="geometry" />
        </mxCell>
        <mxCell id="Bia6g73SPW5gVTmrHwiR-45" style="edgeStyle=none;shape=connector;rounded=0;orthogonalLoop=1;jettySize=auto;html=1;exitX=1;exitY=0.5;exitDx=0;exitDy=0;entryX=0;entryY=0.5;entryDx=0;entryDy=0;labelBackgroundColor=default;strokeColor=default;align=center;verticalAlign=middle;fontFamily=Helvetica;fontSize=12;fontColor=default;endArrow=none;" edge="1" parent="1" source="Bia6g73SPW5gVTmrHwiR-42" target="Bia6g73SPW5gVTmrHwiR-44">
          <mxGeometry relative="1" as="geometry" />
        </mxCell>
        <mxCell id="Bia6g73SPW5gVTmrHwiR-42" value="Gestionar" style="rhombus;whiteSpace=wrap;html=1;" vertex="1" parent="1">
          <mxGeometry x="460" y="415" width="100" height="60" as="geometry" />
        </mxCell>
        <mxCell id="Bia6g73SPW5gVTmrHwiR-44" value="Agencia inmobiliaria" style="rounded=0;whiteSpace=wrap;html=1;fillColor=default;" vertex="1" parent="1">
          <mxGeometry x="610" y="420" width="110" height="50" as="geometry" />
        </mxCell>
        <mxCell id="Bia6g73SPW5gVTmrHwiR-46" value="ID vivienda" style="ellipse;whiteSpace=wrap;html=1;strokeColor=default;align=center;verticalAlign=middle;fontFamily=Helvetica;fontSize=12;fontColor=default;fillColor=default;" vertex="1" parent="1">
          <mxGeometry x="230" y="370" width="90" height="50" as="geometry" />
        </mxCell>
        <mxCell id="Bia6g73SPW5gVTmrHwiR-47" value="Calle" style="ellipse;whiteSpace=wrap;html=1;strokeColor=default;align=center;verticalAlign=middle;fontFamily=Helvetica;fontSize=12;fontColor=default;fillColor=default;" vertex="1" parent="1">
          <mxGeometry x="140" y="375" width="90" height="50" as="geometry" />
        </mxCell>
        <mxCell id="Bia6g73SPW5gVTmrHwiR-48" value="NÃºmero" style="ellipse;whiteSpace=wrap;html=1;strokeColor=default;align=center;verticalAlign=middle;fontFamily=Helvetica;fontSize=12;fontColor=default;fillColor=default;" vertex="1" parent="1">
          <mxGeometry x="120" y="425" width="90" height="50" as="geometry" />
        </mxCell>
        <mxCell id="Bia6g73SPW5gVTmrHwiR-49" value="Piso" style="ellipse;whiteSpace=wrap;html=1;strokeColor=default;align=center;verticalAlign=middle;fontFamily=Helvetica;fontSize=12;fontColor=default;fillColor=default;" vertex="1" parent="1">
          <mxGeometry x="130" y="475" width="90" height="50" as="geometry" />
        </mxCell>
        <mxCell id="Bia6g73SPW5gVTmrHwiR-50" value="CÃ³digo postal" style="ellipse;whiteSpace=wrap;html=1;strokeColor=default;align=center;verticalAlign=middle;fontFamily=Helvetica;fontSize=12;fontColor=default;fillColor=default;" vertex="1" parent="1">
          <mxGeometry x="225" y="500" width="90" height="50" as="geometry" />
        </mxCell>
        <mxCell id="Bia6g73SPW5gVTmrHwiR-51" value="PoblaciÃ³n" style="ellipse;whiteSpace=wrap;html=1;strokeColor=default;align=center;verticalAlign=middle;fontFamily=Helvetica;fontSize=12;fontColor=default;fillColor=default;" vertex="1" parent="1">
          <mxGeometry x="390" y="535" width="90" height="50" as="geometry" />
        </mxCell>
        <mxCell id="Bia6g73SPW5gVTmrHwiR-52" value="DescripciÃ³n" style="ellipse;whiteSpace=wrap;html=1;strokeColor=default;align=center;verticalAlign=middle;fontFamily=Helvetica;fontSize=12;fontColor=default;fillColor=default;" vertex="1" parent="1">
          <mxGeometry x="400" y="480" width="90" height="50" as="geometry" />
        </mxCell>
        <mxCell id="Bia6g73SPW5gVTmrHwiR-64" style="edgeStyle=none;shape=connector;rounded=0;orthogonalLoop=1;jettySize=auto;html=1;exitX=0.5;exitY=1;exitDx=0;exitDy=0;entryX=0.5;entryY=0;entryDx=0;entryDy=0;labelBackgroundColor=default;strokeColor=default;align=center;verticalAlign=middle;fontFamily=Helvetica;fontSize=12;fontColor=default;endArrow=none;" edge="1" parent="1" source="Bia6g73SPW5gVTmrHwiR-61" target="Bia6g73SPW5gVTmrHwiR-62">
          <mxGeometry relative="1" as="geometry" />
        </mxCell>
        <mxCell id="Bia6g73SPW5gVTmrHwiR-61" value="Tener" style="rhombus;whiteSpace=wrap;html=1;" vertex="1" parent="1">
          <mxGeometry x="290" y="550" width="100" height="60" as="geometry" />
        </mxCell>
        <mxCell id="Bia6g73SPW5gVTmrHwiR-78" style="edgeStyle=none;shape=connector;rounded=0;orthogonalLoop=1;jettySize=auto;html=1;exitX=1;exitY=0.5;exitDx=0;exitDy=0;entryX=0;entryY=0.5;entryDx=0;entryDy=0;labelBackgroundColor=default;strokeColor=default;align=center;verticalAlign=middle;fontFamily=Helvetica;fontSize=12;fontColor=default;endArrow=none;" edge="1" parent="1" source="Bia6g73SPW5gVTmrHwiR-62" target="Bia6g73SPW5gVTmrHwiR-76">
          <mxGeometry relative="1" as="geometry" />
        </mxCell>
        <mxCell id="Bia6g73SPW5gVTmrHwiR-79" style="edgeStyle=none;shape=connector;rounded=0;orthogonalLoop=1;jettySize=auto;html=1;exitX=1;exitY=0.75;exitDx=0;exitDy=0;entryX=0;entryY=0;entryDx=0;entryDy=0;labelBackgroundColor=default;strokeColor=default;align=center;verticalAlign=middle;fontFamily=Helvetica;fontSize=12;fontColor=default;endArrow=none;" edge="1" parent="1" source="Bia6g73SPW5gVTmrHwiR-62" target="Bia6g73SPW5gVTmrHwiR-73">
          <mxGeometry relative="1" as="geometry" />
        </mxCell>
        <mxCell id="Bia6g73SPW5gVTmrHwiR-80" style="edgeStyle=none;shape=connector;rounded=0;orthogonalLoop=1;jettySize=auto;html=1;exitX=1;exitY=1;exitDx=0;exitDy=0;entryX=0.5;entryY=0;entryDx=0;entryDy=0;labelBackgroundColor=default;strokeColor=default;align=center;verticalAlign=middle;fontFamily=Helvetica;fontSize=12;fontColor=default;endArrow=none;" edge="1" parent="1" source="Bia6g73SPW5gVTmrHwiR-62" target="Bia6g73SPW5gVTmrHwiR-72">
          <mxGeometry relative="1" as="geometry" />
        </mxCell>
        <mxCell id="Bia6g73SPW5gVTmrHwiR-81" style="edgeStyle=none;shape=connector;rounded=0;orthogonalLoop=1;jettySize=auto;html=1;exitX=0.75;exitY=1;exitDx=0;exitDy=0;entryX=0.5;entryY=0;entryDx=0;entryDy=0;labelBackgroundColor=default;strokeColor=default;align=center;verticalAlign=middle;fontFamily=Helvetica;fontSize=12;fontColor=default;endArrow=none;" edge="1" parent="1" source="Bia6g73SPW5gVTmrHwiR-62" target="Bia6g73SPW5gVTmrHwiR-71">
          <mxGeometry relative="1" as="geometry" />
        </mxCell>
        <mxCell id="Bia6g73SPW5gVTmrHwiR-82" style="edgeStyle=none;shape=connector;rounded=0;orthogonalLoop=1;jettySize=auto;html=1;exitX=0.5;exitY=1;exitDx=0;exitDy=0;entryX=1;entryY=0.5;entryDx=0;entryDy=0;labelBackgroundColor=default;strokeColor=default;align=center;verticalAlign=middle;fontFamily=Helvetica;fontSize=12;fontColor=default;endArrow=none;" edge="1" parent="1" source="Bia6g73SPW5gVTmrHwiR-62" target="Bia6g73SPW5gVTmrHwiR-70">
          <mxGeometry relative="1" as="geometry" />
        </mxCell>
        <mxCell id="Bia6g73SPW5gVTmrHwiR-83" style="edgeStyle=none;shape=connector;rounded=0;orthogonalLoop=1;jettySize=auto;html=1;exitX=0;exitY=1;exitDx=0;exitDy=0;entryX=1;entryY=0.5;entryDx=0;entryDy=0;labelBackgroundColor=default;strokeColor=default;align=center;verticalAlign=middle;fontFamily=Helvetica;fontSize=12;fontColor=default;endArrow=none;" edge="1" parent="1" source="Bia6g73SPW5gVTmrHwiR-62" target="Bia6g73SPW5gVTmrHwiR-74">
          <mxGeometry relative="1" as="geometry" />
        </mxCell>
        <mxCell id="Bia6g73SPW5gVTmrHwiR-84" style="edgeStyle=none;shape=connector;rounded=0;orthogonalLoop=1;jettySize=auto;html=1;exitX=0;exitY=0.5;exitDx=0;exitDy=0;entryX=1;entryY=0.5;entryDx=0;entryDy=0;labelBackgroundColor=default;strokeColor=default;align=center;verticalAlign=middle;fontFamily=Helvetica;fontSize=12;fontColor=default;endArrow=none;" edge="1" parent="1" source="Bia6g73SPW5gVTmrHwiR-62" target="Bia6g73SPW5gVTmrHwiR-77">
          <mxGeometry relative="1" as="geometry" />
        </mxCell>
        <mxCell id="Bia6g73SPW5gVTmrHwiR-62" value="Propietario" style="rounded=0;whiteSpace=wrap;html=1;fillColor=default;" vertex="1" parent="1">
          <mxGeometry x="285" y="650" width="110" height="50" as="geometry" />
        </mxCell>
        <mxCell id="Bia6g73SPW5gVTmrHwiR-70" value="NIF" style="ellipse;whiteSpace=wrap;html=1;strokeColor=default;align=center;verticalAlign=middle;fontFamily=Helvetica;fontSize=12;fontColor=default;fillColor=default;" vertex="1" parent="1">
          <mxGeometry x="195" y="720" width="90" height="50" as="geometry" />
        </mxCell>
        <mxCell id="Bia6g73SPW5gVTmrHwiR-71" value="ID prpietario" style="ellipse;whiteSpace=wrap;html=1;strokeColor=default;align=center;verticalAlign=middle;fontFamily=Helvetica;fontSize=12;fontColor=default;fillColor=default;" vertex="1" parent="1">
          <mxGeometry x="280" y="750" width="90" height="50" as="geometry" />
        </mxCell>
        <mxCell id="Bia6g73SPW5gVTmrHwiR-72" value="Nombre" style="ellipse;whiteSpace=wrap;html=1;strokeColor=default;align=center;verticalAlign=middle;fontFamily=Helvetica;fontSize=12;fontColor=default;fillColor=default;" vertex="1" parent="1">
          <mxGeometry x="370" y="750" width="90" height="50" as="geometry" />
        </mxCell>
        <mxCell id="Bia6g73SPW5gVTmrHwiR-73" value="Apellidos" style="ellipse;whiteSpace=wrap;html=1;strokeColor=default;align=center;verticalAlign=middle;fontFamily=Helvetica;fontSize=12;fontColor=default;fillColor=default;" vertex="1" parent="1">
          <mxGeometry x="430" y="710" width="90" height="50" as="geometry" />
        </mxCell>
        <mxCell id="Bia6g73SPW5gVTmrHwiR-74" value="TÃ©lefono" style="ellipse;whiteSpace=wrap;html=1;strokeColor=default;align=center;verticalAlign=middle;fontFamily=Helvetica;fontSize=12;fontColor=default;fillColor=default;" vertex="1" parent="1">
          <mxGeometry x="160" y="670" width="90" height="50" as="geometry" />
        </mxCell>
        <mxCell id="Bia6g73SPW5gVTmrHwiR-76" value="DirecciÃ³n" style="ellipse;whiteSpace=wrap;html=1;strokeColor=default;align=center;verticalAlign=middle;fontFamily=Helvetica;fontSize=12;fontColor=default;fillColor=default;" vertex="1" parent="1">
          <mxGeometry x="460" y="660" width="90" height="50" as="geometry" />
        </mxCell>
        <mxCell id="Bia6g73SPW5gVTmrHwiR-77" value="Email" style="ellipse;whiteSpace=wrap;html=1;strokeColor=default;align=center;verticalAlign=middle;fontFamily=Helvetica;fontSize=12;fontColor=default;fillColor=default;" vertex="1" parent="1">
          <mxGeometry x="180" y="620" width="90" height="50" as="geometry" />
        </mxCell>
        <mxCell id="Bia6g73SPW5gVTmrHwiR-85" value="1,n" style="text;html=1;strokeColor=none;fillColor=none;align=center;verticalAlign=middle;whiteSpace=wrap;rounded=0;fontSize=12;fontFamily=Helvetica;fontColor=default;" vertex="1" parent="1">
          <mxGeometry x="330" y="520" width="60" height="30" as="geometry" />
        </mxCell>
        <mxCell id="Bia6g73SPW5gVTmrHwiR-86" value="1,1" style="text;html=1;strokeColor=none;fillColor=none;align=center;verticalAlign=middle;whiteSpace=wrap;rounded=0;fontSize=12;fontFamily=Helvetica;fontColor=default;" vertex="1" parent="1">
          <mxGeometry x="340" y="530" width="60" height="30" as="geometry" />
        </mxCell>
        <mxCell id="Bia6g73SPW5gVTmrHwiR-87" value="1,1" style="text;html=1;strokeColor=none;fillColor=none;align=center;verticalAlign=middle;whiteSpace=wrap;rounded=0;fontSize=12;fontFamily=Helvetica;fontColor=default;" vertex="1" parent="1">
          <mxGeometry x="340" y="620" width="60" height="30" as="geometry" />
        </mxCell>
        <mxCell id="Bia6g73SPW5gVTmrHwiR-88" value="1:N" style="text;html=1;strokeColor=none;fillColor=none;align=center;verticalAlign=middle;whiteSpace=wrap;rounded=0;fontSize=12;fontFamily=Helvetica;fontColor=default;" vertex="1" parent="1">
          <mxGeometry x="240" y="565" width="60" height="30" as="geometry" />
        </mxCell>
        <mxCell id="Bia6g73SPW5gVTmrHwiR-89" value="1,n" style="text;html=1;strokeColor=none;fillColor=none;align=center;verticalAlign=middle;whiteSpace=wrap;rounded=0;fontSize=12;fontFamily=Helvetica;fontColor=default;" vertex="1" parent="1">
          <mxGeometry x="414" y="420" width="60" height="30" as="geometry" />
        </mxCell>
        <mxCell id="Bia6g73SPW5gVTmrHwiR-90" value="1,1" style="text;html=1;strokeColor=none;fillColor=none;align=center;verticalAlign=middle;whiteSpace=wrap;rounded=0;fontSize=12;fontFamily=Helvetica;fontColor=default;" vertex="1" parent="1">
          <mxGeometry x="550" y="415" width="60" height="30" as="geometry" />
        </mxCell>
        <mxCell id="Bia6g73SPW5gVTmrHwiR-91" value="1:N" style="text;html=1;strokeColor=none;fillColor=none;align=center;verticalAlign=middle;whiteSpace=wrap;rounded=0;fontSize=12;fontFamily=Helvetica;fontColor=default;" vertex="1" parent="1">
          <mxGeometry x="480" y="385" width="60" height="30" as="geometry" />
        </mxCell>
        <mxCell id="Bia6g73SPW5gVTmrHwiR-92" value="1,1" style="text;html=1;strokeColor=none;fillColor=none;align=center;verticalAlign=middle;whiteSpace=wrap;rounded=0;fontSize=12;fontFamily=Helvetica;fontColor=default;" vertex="1" parent="1">
          <mxGeometry x="430" y="270" width="60" height="30" as="geometry" />
        </mxCell>
        <mxCell id="Bia6g73SPW5gVTmrHwiR-93" value="1,1" style="text;html=1;strokeColor=none;fillColor=none;align=center;verticalAlign=middle;whiteSpace=wrap;rounded=0;fontSize=12;fontFamily=Helvetica;fontColor=default;" vertex="1" parent="1">
          <mxGeometry x="580" y="275" width="60" height="30" as="geometry" />
        </mxCell>
        <mxCell id="Bia6g73SPW5gVTmrHwiR-94" value="1:1" style="text;html=1;strokeColor=none;fillColor=none;align=center;verticalAlign=middle;whiteSpace=wrap;rounded=0;fontSize=12;fontFamily=Helvetica;fontColor=default;" vertex="1" parent="1">
          <mxGeometry x="500" y="220" width="60" height="30" as="geometry" />
        </mxCell>
        <mxCell id="Bia6g73SPW5gVTmrHwiR-99" style="edgeStyle=none;shape=connector;rounded=0;orthogonalLoop=1;jettySize=auto;html=1;exitX=1;exitY=0.5;exitDx=0;exitDy=0;entryX=0;entryY=0.5;entryDx=0;entryDy=0;labelBackgroundColor=default;strokeColor=default;align=center;verticalAlign=middle;fontFamily=Helvetica;fontSize=12;fontColor=default;endArrow=none;" edge="1" parent="1" source="Bia6g73SPW5gVTmrHwiR-95" target="Bia6g73SPW5gVTmrHwiR-96">
          <mxGeometry relative="1" as="geometry" />
        </mxCell>
        <mxCell id="Bia6g73SPW5gVTmrHwiR-140" style="edgeStyle=none;shape=connector;rounded=0;orthogonalLoop=1;jettySize=auto;html=1;exitX=0.5;exitY=1;exitDx=0;exitDy=0;entryX=0.5;entryY=0;entryDx=0;entryDy=0;labelBackgroundColor=default;strokeColor=default;align=center;verticalAlign=middle;fontFamily=Helvetica;fontSize=12;fontColor=default;endArrow=none;" edge="1" parent="1" source="Bia6g73SPW5gVTmrHwiR-95" target="Bia6g73SPW5gVTmrHwiR-139">
          <mxGeometry relative="1" as="geometry" />
        </mxCell>
        <mxCell id="Bia6g73SPW5gVTmrHwiR-95" value="Empleado" style="rounded=0;whiteSpace=wrap;html=1;fillColor=default;" vertex="1" parent="1">
          <mxGeometry x="1360" y="335" width="110" height="50" as="geometry" />
        </mxCell>
        <mxCell id="Bia6g73SPW5gVTmrHwiR-130" style="edgeStyle=none;shape=connector;rounded=0;orthogonalLoop=1;jettySize=auto;html=1;exitX=1;exitY=0.5;exitDx=0;exitDy=0;entryX=0;entryY=0.5;entryDx=0;entryDy=0;labelBackgroundColor=default;strokeColor=default;align=center;verticalAlign=middle;fontFamily=Helvetica;fontSize=12;fontColor=default;endArrow=none;" edge="1" parent="1" source="Bia6g73SPW5gVTmrHwiR-96" target="Bia6g73SPW5gVTmrHwiR-98">
          <mxGeometry relative="1" as="geometry" />
        </mxCell>
        <mxCell id="Bia6g73SPW5gVTmrHwiR-96" value="Trabajar" style="rhombus;whiteSpace=wrap;html=1;" vertex="1" parent="1">
          <mxGeometry x="1510" y="330" width="100" height="60" as="geometry" />
        </mxCell>
        <mxCell id="Bia6g73SPW5gVTmrHwiR-110" style="edgeStyle=none;shape=connector;rounded=0;orthogonalLoop=1;jettySize=auto;html=1;exitX=0.5;exitY=1;exitDx=0;exitDy=0;entryX=0.25;entryY=0;entryDx=0;entryDy=0;labelBackgroundColor=default;strokeColor=default;align=center;verticalAlign=middle;fontFamily=Helvetica;fontSize=12;fontColor=default;endArrow=none;" edge="1" parent="1" source="Bia6g73SPW5gVTmrHwiR-97" target="Bia6g73SPW5gVTmrHwiR-95">
          <mxGeometry relative="1" as="geometry" />
        </mxCell>
        <mxCell id="Bia6g73SPW5gVTmrHwiR-97" value="ID empleado" style="ellipse;whiteSpace=wrap;html=1;strokeColor=default;align=center;verticalAlign=middle;fontFamily=Helvetica;fontSize=12;fontColor=default;fillColor=default;" vertex="1" parent="1">
          <mxGeometry x="1270" y="255" width="90" height="50" as="geometry" />
        </mxCell>
        <mxCell id="Bia6g73SPW5gVTmrHwiR-118" style="edgeStyle=none;shape=connector;rounded=0;orthogonalLoop=1;jettySize=auto;html=1;exitX=0.25;exitY=0;exitDx=0;exitDy=0;entryX=0.5;entryY=1;entryDx=0;entryDy=0;labelBackgroundColor=default;strokeColor=default;align=center;verticalAlign=middle;fontFamily=Helvetica;fontSize=12;fontColor=default;endArrow=none;" edge="1" parent="1" source="Bia6g73SPW5gVTmrHwiR-98" target="Bia6g73SPW5gVTmrHwiR-113">
          <mxGeometry relative="1" as="geometry" />
        </mxCell>
        <mxCell id="Bia6g73SPW5gVTmrHwiR-119" style="edgeStyle=none;shape=connector;rounded=0;orthogonalLoop=1;jettySize=auto;html=1;exitX=0.75;exitY=0;exitDx=0;exitDy=0;entryX=0.5;entryY=1;entryDx=0;entryDy=0;labelBackgroundColor=default;strokeColor=default;align=center;verticalAlign=middle;fontFamily=Helvetica;fontSize=12;fontColor=default;endArrow=none;" edge="1" parent="1" source="Bia6g73SPW5gVTmrHwiR-98" target="Bia6g73SPW5gVTmrHwiR-117">
          <mxGeometry relative="1" as="geometry" />
        </mxCell>
        <mxCell id="Bia6g73SPW5gVTmrHwiR-98" value="Oficinas" style="rounded=0;whiteSpace=wrap;html=1;fillColor=default;" vertex="1" parent="1">
          <mxGeometry x="1650" y="335" width="110" height="50" as="geometry" />
        </mxCell>
        <mxCell id="Bia6g73SPW5gVTmrHwiR-108" style="edgeStyle=none;shape=connector;rounded=0;orthogonalLoop=1;jettySize=auto;html=1;exitX=0.5;exitY=0;exitDx=0;exitDy=0;entryX=0.75;entryY=1;entryDx=0;entryDy=0;labelBackgroundColor=default;strokeColor=default;align=center;verticalAlign=middle;fontFamily=Helvetica;fontSize=12;fontColor=default;endArrow=none;" edge="1" parent="1" source="Bia6g73SPW5gVTmrHwiR-101" target="Bia6g73SPW5gVTmrHwiR-95">
          <mxGeometry relative="1" as="geometry" />
        </mxCell>
        <mxCell id="Bia6g73SPW5gVTmrHwiR-101" value="Nombre" style="ellipse;whiteSpace=wrap;html=1;strokeColor=default;align=center;verticalAlign=middle;fontFamily=Helvetica;fontSize=12;fontColor=default;fillColor=default;" vertex="1" parent="1">
          <mxGeometry x="1430" y="475" width="90" height="50" as="geometry" />
        </mxCell>
        <mxCell id="Bia6g73SPW5gVTmrHwiR-111" style="edgeStyle=none;shape=connector;rounded=0;orthogonalLoop=1;jettySize=auto;html=1;exitX=0.5;exitY=1;exitDx=0;exitDy=0;entryX=0.5;entryY=0;entryDx=0;entryDy=0;labelBackgroundColor=default;strokeColor=default;align=center;verticalAlign=middle;fontFamily=Helvetica;fontSize=12;fontColor=default;endArrow=none;" edge="1" parent="1" source="Bia6g73SPW5gVTmrHwiR-102" target="Bia6g73SPW5gVTmrHwiR-95">
          <mxGeometry relative="1" as="geometry" />
        </mxCell>
        <mxCell id="Bia6g73SPW5gVTmrHwiR-102" value="Apellidos" style="ellipse;whiteSpace=wrap;html=1;strokeColor=default;align=center;verticalAlign=middle;fontFamily=Helvetica;fontSize=12;fontColor=default;fillColor=default;" vertex="1" parent="1">
          <mxGeometry x="1370" y="220" width="90" height="50" as="geometry" />
        </mxCell>
        <mxCell id="Bia6g73SPW5gVTmrHwiR-109" style="edgeStyle=none;shape=connector;rounded=0;orthogonalLoop=1;jettySize=auto;html=1;exitX=0.5;exitY=0;exitDx=0;exitDy=0;entryX=0.75;entryY=1;entryDx=0;entryDy=0;labelBackgroundColor=default;strokeColor=default;align=center;verticalAlign=middle;fontFamily=Helvetica;fontSize=12;fontColor=default;endArrow=none;" edge="1" parent="1" source="Bia6g73SPW5gVTmrHwiR-103" target="Bia6g73SPW5gVTmrHwiR-95">
          <mxGeometry relative="1" as="geometry" />
        </mxCell>
        <mxCell id="Bia6g73SPW5gVTmrHwiR-103" value="Email" style="ellipse;whiteSpace=wrap;html=1;strokeColor=default;align=center;verticalAlign=middle;fontFamily=Helvetica;fontSize=12;fontColor=default;fillColor=default;" vertex="1" parent="1">
          <mxGeometry x="1470" y="425" width="90" height="50" as="geometry" />
        </mxCell>
        <mxCell id="Bia6g73SPW5gVTmrHwiR-107" style="edgeStyle=none;shape=connector;rounded=0;orthogonalLoop=1;jettySize=auto;html=1;exitX=0.5;exitY=0;exitDx=0;exitDy=0;entryX=0.25;entryY=1;entryDx=0;entryDy=0;labelBackgroundColor=default;strokeColor=default;align=center;verticalAlign=middle;fontFamily=Helvetica;fontSize=12;fontColor=default;endArrow=none;" edge="1" parent="1" source="Bia6g73SPW5gVTmrHwiR-104" target="Bia6g73SPW5gVTmrHwiR-95">
          <mxGeometry relative="1" as="geometry" />
        </mxCell>
        <mxCell id="Bia6g73SPW5gVTmrHwiR-104" value="TelÃ©fono" style="ellipse;whiteSpace=wrap;html=1;strokeColor=default;align=center;verticalAlign=middle;fontFamily=Helvetica;fontSize=12;fontColor=default;fillColor=default;" vertex="1" parent="1">
          <mxGeometry x="1270" y="400" width="90" height="50" as="geometry" />
        </mxCell>
        <mxCell id="Bia6g73SPW5gVTmrHwiR-112" style="edgeStyle=none;shape=connector;rounded=0;orthogonalLoop=1;jettySize=auto;html=1;exitX=0.5;exitY=1;exitDx=0;exitDy=0;entryX=0.75;entryY=0;entryDx=0;entryDy=0;labelBackgroundColor=default;strokeColor=default;align=center;verticalAlign=middle;fontFamily=Helvetica;fontSize=12;fontColor=default;endArrow=none;" edge="1" parent="1" source="Bia6g73SPW5gVTmrHwiR-105" target="Bia6g73SPW5gVTmrHwiR-95">
          <mxGeometry relative="1" as="geometry" />
        </mxCell>
        <mxCell id="Bia6g73SPW5gVTmrHwiR-105" value="Puesto" style="ellipse;whiteSpace=wrap;html=1;strokeColor=default;align=center;verticalAlign=middle;fontFamily=Helvetica;fontSize=12;fontColor=default;fillColor=default;" vertex="1" parent="1">
          <mxGeometry x="1470" y="255" width="90" height="50" as="geometry" />
        </mxCell>
        <mxCell id="Bia6g73SPW5gVTmrHwiR-113" value="ID empresa" style="ellipse;whiteSpace=wrap;html=1;strokeColor=default;align=center;verticalAlign=middle;fontFamily=Helvetica;fontSize=12;fontColor=default;fillColor=default;" vertex="1" parent="1">
          <mxGeometry x="1600" y="255" width="90" height="50" as="geometry" />
        </mxCell>
        <mxCell id="Bia6g73SPW5gVTmrHwiR-121" style="edgeStyle=none;shape=connector;rounded=0;orthogonalLoop=1;jettySize=auto;html=1;exitX=0.5;exitY=0;exitDx=0;exitDy=0;entryX=0.5;entryY=1;entryDx=0;entryDy=0;labelBackgroundColor=default;strokeColor=default;align=center;verticalAlign=middle;fontFamily=Helvetica;fontSize=12;fontColor=default;endArrow=none;" edge="1" parent="1" source="Bia6g73SPW5gVTmrHwiR-114" target="Bia6g73SPW5gVTmrHwiR-98">
          <mxGeometry relative="1" as="geometry" />
        </mxCell>
        <mxCell id="Bia6g73SPW5gVTmrHwiR-114" value="DirecciÃ³n" style="ellipse;whiteSpace=wrap;html=1;strokeColor=default;align=center;verticalAlign=middle;fontFamily=Helvetica;fontSize=12;fontColor=default;fillColor=default;" vertex="1" parent="1">
          <mxGeometry x="1660" y="440" width="90" height="50" as="geometry" />
        </mxCell>
        <mxCell id="Bia6g73SPW5gVTmrHwiR-122" style="edgeStyle=none;shape=connector;rounded=0;orthogonalLoop=1;jettySize=auto;html=1;exitX=0;exitY=0;exitDx=0;exitDy=0;entryX=0.75;entryY=1;entryDx=0;entryDy=0;labelBackgroundColor=default;strokeColor=default;align=center;verticalAlign=middle;fontFamily=Helvetica;fontSize=12;fontColor=default;endArrow=none;" edge="1" parent="1" source="Bia6g73SPW5gVTmrHwiR-115" target="Bia6g73SPW5gVTmrHwiR-98">
          <mxGeometry relative="1" as="geometry" />
        </mxCell>
        <mxCell id="Bia6g73SPW5gVTmrHwiR-115" value="TelÃ©fono" style="ellipse;whiteSpace=wrap;html=1;strokeColor=default;align=center;verticalAlign=middle;fontFamily=Helvetica;fontSize=12;fontColor=default;fillColor=default;" vertex="1" parent="1">
          <mxGeometry x="1740" y="390" width="90" height="50" as="geometry" />
        </mxCell>
        <mxCell id="Bia6g73SPW5gVTmrHwiR-120" style="edgeStyle=none;shape=connector;rounded=0;orthogonalLoop=1;jettySize=auto;html=1;exitX=1;exitY=0;exitDx=0;exitDy=0;entryX=0.25;entryY=1;entryDx=0;entryDy=0;labelBackgroundColor=default;strokeColor=default;align=center;verticalAlign=middle;fontFamily=Helvetica;fontSize=12;fontColor=default;endArrow=none;" edge="1" parent="1" source="Bia6g73SPW5gVTmrHwiR-116" target="Bia6g73SPW5gVTmrHwiR-98">
          <mxGeometry relative="1" as="geometry" />
        </mxCell>
        <mxCell id="Bia6g73SPW5gVTmrHwiR-116" value="localidad" style="ellipse;whiteSpace=wrap;html=1;strokeColor=default;align=center;verticalAlign=middle;fontFamily=Helvetica;fontSize=12;fontColor=default;fillColor=default;" vertex="1" parent="1">
          <mxGeometry x="1580" y="390" width="90" height="50" as="geometry" />
        </mxCell>
        <mxCell id="Bia6g73SPW5gVTmrHwiR-117" value="provincia" style="ellipse;whiteSpace=wrap;html=1;strokeColor=default;align=center;verticalAlign=middle;fontFamily=Helvetica;fontSize=12;fontColor=default;fillColor=default;" vertex="1" parent="1">
          <mxGeometry x="1710" y="255" width="90" height="50" as="geometry" />
        </mxCell>
        <mxCell id="Bia6g73SPW5gVTmrHwiR-125" value="0,n" style="text;html=1;strokeColor=none;fillColor=none;align=center;verticalAlign=middle;whiteSpace=wrap;rounded=0;fontSize=12;fontFamily=Helvetica;fontColor=default;" vertex="1" parent="1">
          <mxGeometry x="1470" y="330" width="60" height="30" as="geometry" />
        </mxCell>
        <mxCell id="Bia6g73SPW5gVTmrHwiR-127" value="1,1" style="text;html=1;strokeColor=none;fillColor=none;align=center;verticalAlign=middle;whiteSpace=wrap;rounded=0;fontSize=12;fontFamily=Helvetica;fontColor=default;" vertex="1" parent="1">
          <mxGeometry x="1595" y="330" width="60" height="30" as="geometry" />
        </mxCell>
        <mxCell id="Bia6g73SPW5gVTmrHwiR-129" value="0:N" style="text;html=1;strokeColor=none;fillColor=none;align=center;verticalAlign=middle;whiteSpace=wrap;rounded=0;fontSize=12;fontFamily=Helvetica;fontColor=default;" vertex="1" parent="1">
          <mxGeometry x="1530" y="305" width="60" height="30" as="geometry" />
        </mxCell>
        <mxCell id="Bia6g73SPW5gVTmrHwiR-132" style="edgeStyle=none;shape=connector;rounded=0;orthogonalLoop=1;jettySize=auto;html=1;exitX=1;exitY=0.5;exitDx=0;exitDy=0;entryX=0;entryY=0.5;entryDx=0;entryDy=0;labelBackgroundColor=default;strokeColor=default;align=center;verticalAlign=middle;fontFamily=Helvetica;fontSize=12;fontColor=default;endArrow=none;" edge="1" parent="1" source="Bia6g73SPW5gVTmrHwiR-131" target="Bia6g73SPW5gVTmrHwiR-95">
          <mxGeometry relative="1" as="geometry" />
        </mxCell>
        <mxCell id="Bia6g73SPW5gVTmrHwiR-134" style="edgeStyle=none;shape=connector;rounded=0;orthogonalLoop=1;jettySize=auto;html=1;exitX=0;exitY=0.5;exitDx=0;exitDy=0;entryX=1;entryY=0.5;entryDx=0;entryDy=0;labelBackgroundColor=default;strokeColor=default;align=center;verticalAlign=middle;fontFamily=Helvetica;fontSize=12;fontColor=default;endArrow=none;" edge="1" parent="1" source="Bia6g73SPW5gVTmrHwiR-131" target="Bia6g73SPW5gVTmrHwiR-133">
          <mxGeometry relative="1" as="geometry" />
        </mxCell>
        <mxCell id="Bia6g73SPW5gVTmrHwiR-131" value="Ser" style="rhombus;whiteSpace=wrap;html=1;" vertex="1" parent="1">
          <mxGeometry x="1220" y="330" width="100" height="60" as="geometry" />
        </mxCell>
        <mxCell id="Bia6g73SPW5gVTmrHwiR-133" value="Jefe" style="rounded=0;whiteSpace=wrap;html=1;fillColor=default;" vertex="1" parent="1">
          <mxGeometry x="1080" y="335" width="110" height="50" as="geometry" />
        </mxCell>
        <mxCell id="Bia6g73SPW5gVTmrHwiR-136" value="1,n" style="text;html=1;strokeColor=none;fillColor=none;align=center;verticalAlign=middle;whiteSpace=wrap;rounded=0;fontSize=12;fontFamily=Helvetica;fontColor=default;" vertex="1" parent="1">
          <mxGeometry x="1310" y="330" width="60" height="30" as="geometry" />
        </mxCell>
        <mxCell id="Bia6g73SPW5gVTmrHwiR-137" value="1,1" style="text;html=1;strokeColor=none;fillColor=none;align=center;verticalAlign=middle;whiteSpace=wrap;rounded=0;fontSize=12;fontFamily=Helvetica;fontColor=default;" vertex="1" parent="1">
          <mxGeometry x="1180" y="330" width="60" height="30" as="geometry" />
        </mxCell>
        <mxCell id="Bia6g73SPW5gVTmrHwiR-138" value="1:N" style="text;html=1;strokeColor=none;fillColor=none;align=center;verticalAlign=middle;whiteSpace=wrap;rounded=0;fontSize=12;fontFamily=Helvetica;fontColor=default;" vertex="1" parent="1">
          <mxGeometry x="1240" y="300" width="60" height="30" as="geometry" />
        </mxCell>
        <mxCell id="Bia6g73SPW5gVTmrHwiR-142" style="edgeStyle=none;shape=connector;rounded=0;orthogonalLoop=1;jettySize=auto;html=1;exitX=0.5;exitY=1;exitDx=0;exitDy=0;entryX=0.5;entryY=0;entryDx=0;entryDy=0;labelBackgroundColor=default;strokeColor=default;align=center;verticalAlign=middle;fontFamily=Helvetica;fontSize=12;fontColor=default;endArrow=none;" edge="1" parent="1" source="Bia6g73SPW5gVTmrHwiR-139" target="Bia6g73SPW5gVTmrHwiR-141">
          <mxGeometry relative="1" as="geometry" />
        </mxCell>
        <mxCell id="Bia6g73SPW5gVTmrHwiR-139" value="Asociar" style="rhombus;whiteSpace=wrap;html=1;" vertex="1" parent="1">
          <mxGeometry x="1310" y="450" width="100" height="60" as="geometry" />
        </mxCell>
        <mxCell id="Bia6g73SPW5gVTmrHwiR-148" style="edgeStyle=none;shape=connector;rounded=0;orthogonalLoop=1;jettySize=auto;html=1;exitX=1;exitY=0.5;exitDx=0;exitDy=0;entryX=0;entryY=0.5;entryDx=0;entryDy=0;labelBackgroundColor=default;strokeColor=default;align=center;verticalAlign=middle;fontFamily=Helvetica;fontSize=12;fontColor=default;endArrow=none;" edge="1" parent="1" source="Bia6g73SPW5gVTmrHwiR-141" target="Bia6g73SPW5gVTmrHwiR-146">
          <mxGeometry relative="1" as="geometry" />
        </mxCell>
        <mxCell id="Bia6g73SPW5gVTmrHwiR-141" value="Cliente" style="rounded=0;whiteSpace=wrap;html=1;fillColor=default;" vertex="1" parent="1">
          <mxGeometry x="1250" y="550" width="110" height="50" as="geometry" />
        </mxCell>
        <mxCell id="Bia6g73SPW5gVTmrHwiR-143" value="1,1" style="text;html=1;strokeColor=none;fillColor=none;align=center;verticalAlign=middle;whiteSpace=wrap;rounded=0;fontSize=12;fontFamily=Helvetica;fontColor=default;" vertex="1" parent="1">
          <mxGeometry x="1370" y="415" width="60" height="30" as="geometry" />
        </mxCell>
        <mxCell id="Bia6g73SPW5gVTmrHwiR-144" value="1,n" style="text;html=1;strokeColor=none;fillColor=none;align=center;verticalAlign=middle;whiteSpace=wrap;rounded=0;fontSize=12;fontFamily=Helvetica;fontColor=default;" vertex="1" parent="1">
          <mxGeometry x="1285" y="510" width="60" height="30" as="geometry" />
        </mxCell>
        <mxCell id="Bia6g73SPW5gVTmrHwiR-145" value="1:N" style="text;html=1;strokeColor=none;fillColor=none;align=center;verticalAlign=middle;whiteSpace=wrap;rounded=0;fontSize=12;fontFamily=Helvetica;fontColor=default;" vertex="1" parent="1">
          <mxGeometry x="1260" y="465" width="60" height="30" as="geometry" />
        </mxCell>
        <mxCell id="Bia6g73SPW5gVTmrHwiR-150" style="edgeStyle=none;shape=connector;rounded=0;orthogonalLoop=1;jettySize=auto;html=1;exitX=1;exitY=0.5;exitDx=0;exitDy=0;entryX=0;entryY=0.5;entryDx=0;entryDy=0;labelBackgroundColor=default;strokeColor=default;align=center;verticalAlign=middle;fontFamily=Helvetica;fontSize=12;fontColor=default;endArrow=none;" edge="1" parent="1" source="Bia6g73SPW5gVTmrHwiR-146" target="Bia6g73SPW5gVTmrHwiR-147">
          <mxGeometry relative="1" as="geometry" />
        </mxCell>
        <mxCell id="Bia6g73SPW5gVTmrHwiR-146" value="Realiza" style="rhombus;whiteSpace=wrap;html=1;" vertex="1" parent="1">
          <mxGeometry x="1400" y="545" width="100" height="60" as="geometry" />
        </mxCell>
        <mxCell id="Bia6g73SPW5gVTmrHwiR-160" style="edgeStyle=none;shape=connector;rounded=0;orthogonalLoop=1;jettySize=auto;html=1;exitX=0;exitY=1;exitDx=0;exitDy=0;entryX=1;entryY=0;entryDx=0;entryDy=0;labelBackgroundColor=default;strokeColor=default;align=center;verticalAlign=middle;fontFamily=Helvetica;fontSize=12;fontColor=default;endArrow=none;" edge="1" parent="1" source="Bia6g73SPW5gVTmrHwiR-147" target="Bia6g73SPW5gVTmrHwiR-155">
          <mxGeometry relative="1" as="geometry" />
        </mxCell>
        <mxCell id="Bia6g73SPW5gVTmrHwiR-161" style="edgeStyle=none;shape=connector;rounded=0;orthogonalLoop=1;jettySize=auto;html=1;exitX=0.25;exitY=1;exitDx=0;exitDy=0;entryX=0.5;entryY=0;entryDx=0;entryDy=0;labelBackgroundColor=default;strokeColor=default;align=center;verticalAlign=middle;fontFamily=Helvetica;fontSize=12;fontColor=default;endArrow=none;" edge="1" parent="1" source="Bia6g73SPW5gVTmrHwiR-147" target="Bia6g73SPW5gVTmrHwiR-154">
          <mxGeometry relative="1" as="geometry" />
        </mxCell>
        <mxCell id="Bia6g73SPW5gVTmrHwiR-162" style="edgeStyle=none;shape=connector;rounded=0;orthogonalLoop=1;jettySize=auto;html=1;exitX=1;exitY=1;exitDx=0;exitDy=0;entryX=0;entryY=0.5;entryDx=0;entryDy=0;labelBackgroundColor=default;strokeColor=default;align=center;verticalAlign=middle;fontFamily=Helvetica;fontSize=12;fontColor=default;endArrow=none;" edge="1" parent="1" source="Bia6g73SPW5gVTmrHwiR-147" target="Bia6g73SPW5gVTmrHwiR-159">
          <mxGeometry relative="1" as="geometry" />
        </mxCell>
        <mxCell id="Bia6g73SPW5gVTmrHwiR-163" style="edgeStyle=none;shape=connector;rounded=0;orthogonalLoop=1;jettySize=auto;html=1;exitX=1;exitY=0.75;exitDx=0;exitDy=0;entryX=0;entryY=0.5;entryDx=0;entryDy=0;labelBackgroundColor=default;strokeColor=default;align=center;verticalAlign=middle;fontFamily=Helvetica;fontSize=12;fontColor=default;endArrow=none;" edge="1" parent="1" source="Bia6g73SPW5gVTmrHwiR-147" target="Bia6g73SPW5gVTmrHwiR-158">
          <mxGeometry relative="1" as="geometry" />
        </mxCell>
        <mxCell id="Bia6g73SPW5gVTmrHwiR-164" style="edgeStyle=none;shape=connector;rounded=0;orthogonalLoop=1;jettySize=auto;html=1;exitX=1;exitY=0.5;exitDx=0;exitDy=0;entryX=0;entryY=1;entryDx=0;entryDy=0;labelBackgroundColor=default;strokeColor=default;align=center;verticalAlign=middle;fontFamily=Helvetica;fontSize=12;fontColor=default;endArrow=none;" edge="1" parent="1" source="Bia6g73SPW5gVTmrHwiR-147" target="Bia6g73SPW5gVTmrHwiR-157">
          <mxGeometry relative="1" as="geometry" />
        </mxCell>
        <mxCell id="Bia6g73SPW5gVTmrHwiR-165" style="edgeStyle=none;shape=connector;rounded=0;orthogonalLoop=1;jettySize=auto;html=1;exitX=1;exitY=0;exitDx=0;exitDy=0;entryX=0.5;entryY=1;entryDx=0;entryDy=0;labelBackgroundColor=default;strokeColor=default;align=center;verticalAlign=middle;fontFamily=Helvetica;fontSize=12;fontColor=default;endArrow=none;" edge="1" parent="1" source="Bia6g73SPW5gVTmrHwiR-147" target="Bia6g73SPW5gVTmrHwiR-156">
          <mxGeometry relative="1" as="geometry" />
        </mxCell>
        <mxCell id="Bia6g73SPW5gVTmrHwiR-147" value="Pedidos" style="rounded=0;whiteSpace=wrap;html=1;fillColor=default;" vertex="1" parent="1">
          <mxGeometry x="1540" y="550" width="110" height="50" as="geometry" />
        </mxCell>
        <mxCell id="Bia6g73SPW5gVTmrHwiR-151" value="1,n" style="text;html=1;strokeColor=none;fillColor=none;align=center;verticalAlign=middle;whiteSpace=wrap;rounded=0;fontSize=12;fontFamily=Helvetica;fontColor=default;" vertex="1" parent="1">
          <mxGeometry x="1350" y="540" width="60" height="30" as="geometry" />
        </mxCell>
        <mxCell id="Bia6g73SPW5gVTmrHwiR-152" value="1,m" style="text;html=1;strokeColor=none;fillColor=none;align=center;verticalAlign=middle;whiteSpace=wrap;rounded=0;fontSize=12;fontFamily=Helvetica;fontColor=default;" vertex="1" parent="1">
          <mxGeometry x="1485" y="545" width="60" height="30" as="geometry" />
        </mxCell>
        <mxCell id="Bia6g73SPW5gVTmrHwiR-153" value="N:M" style="text;html=1;strokeColor=none;fillColor=none;align=center;verticalAlign=middle;whiteSpace=wrap;rounded=0;fontSize=12;fontFamily=Helvetica;fontColor=default;" vertex="1" parent="1">
          <mxGeometry x="1420" y="520" width="60" height="30" as="geometry" />
        </mxCell>
        <mxCell id="Bia6g73SPW5gVTmrHwiR-154" value="ID pedido" style="ellipse;whiteSpace=wrap;html=1;strokeColor=default;align=center;verticalAlign=middle;fontFamily=Helvetica;fontSize=12;fontColor=default;fillColor=default;" vertex="1" parent="1">
          <mxGeometry x="1480" y="650" width="90" height="50" as="geometry" />
        </mxCell>
        <mxCell id="Bia6g73SPW5gVTmrHwiR-155" value="Fecha de pedido" style="ellipse;whiteSpace=wrap;html=1;strokeColor=default;align=center;verticalAlign=middle;fontFamily=Helvetica;fontSize=12;fontColor=default;fillColor=default;" vertex="1" parent="1">
          <mxGeometry x="1440" y="605" width="90" height="50" as="geometry" />
        </mxCell>
        <mxCell id="Bia6g73SPW5gVTmrHwiR-156" value="Fecha prevista entrega" style="ellipse;whiteSpace=wrap;html=1;strokeColor=default;align=center;verticalAlign=middle;fontFamily=Helvetica;fontSize=12;fontColor=default;fillColor=default;" vertex="1" parent="1">
          <mxGeometry x="1590" y="485" width="90" height="50" as="geometry" />
        </mxCell>
        <mxCell id="Bia6g73SPW5gVTmrHwiR-157" value="Fecha entrega" style="ellipse;whiteSpace=wrap;html=1;strokeColor=default;align=center;verticalAlign=middle;fontFamily=Helvetica;fontSize=12;fontColor=default;fillColor=default;" vertex="1" parent="1">
          <mxGeometry x="1670" y="510" width="90" height="50" as="geometry" />
        </mxCell>
        <mxCell id="Bia6g73SPW5gVTmrHwiR-158" value="Estado pedido" style="ellipse;whiteSpace=wrap;html=1;strokeColor=default;align=center;verticalAlign=middle;fontFamily=Helvetica;fontSize=12;fontColor=default;fillColor=default;" vertex="1" parent="1">
          <mxGeometry x="1680" y="560" width="90" height="50" as="geometry" />
        </mxCell>
        <mxCell id="Bia6g73SPW5gVTmrHwiR-159" value="Comentarios" style="ellipse;whiteSpace=wrap;html=1;strokeColor=default;align=center;verticalAlign=middle;fontFamily=Helvetica;fontSize=12;fontColor=default;fillColor=default;" vertex="1" parent="1">
          <mxGeometry x="1670" y="610" width="90" height="50" as="geometry" />
        </mxCell>
        <mxCell id="Bia6g73SPW5gVTmrHwiR-168" style="edgeStyle=none;shape=connector;rounded=0;orthogonalLoop=1;jettySize=auto;html=1;exitX=1;exitY=0.5;exitDx=0;exitDy=0;entryX=0;entryY=0.5;entryDx=0;entryDy=0;labelBackgroundColor=default;strokeColor=default;align=center;verticalAlign=middle;fontFamily=Helvetica;fontSize=12;fontColor=default;endArrow=none;" edge="1" parent="1" source="Bia6g73SPW5gVTmrHwiR-166" target="Bia6g73SPW5gVTmrHwiR-167">
          <mxGeometry relative="1" as="geometry" />
        </mxCell>
        <mxCell id="Bia6g73SPW5gVTmrHwiR-169" style="edgeStyle=none;shape=connector;rounded=0;orthogonalLoop=1;jettySize=auto;html=1;exitX=0.5;exitY=0;exitDx=0;exitDy=0;entryX=0.5;entryY=1;entryDx=0;entryDy=0;labelBackgroundColor=default;strokeColor=default;align=center;verticalAlign=middle;fontFamily=Helvetica;fontSize=12;fontColor=default;endArrow=none;" edge="1" parent="1" source="Bia6g73SPW5gVTmrHwiR-166" target="Bia6g73SPW5gVTmrHwiR-147">
          <mxGeometry relative="1" as="geometry" />
        </mxCell>
        <mxCell id="Bia6g73SPW5gVTmrHwiR-166" value="Contiene" style="rhombus;whiteSpace=wrap;html=1;" vertex="1" parent="1">
          <mxGeometry x="1585" y="650" width="100" height="60" as="geometry" />
        </mxCell>
        <mxCell id="Bia6g73SPW5gVTmrHwiR-174" style="edgeStyle=none;shape=connector;rounded=0;orthogonalLoop=1;jettySize=auto;html=1;exitX=0.5;exitY=0;exitDx=0;exitDy=0;entryX=0.5;entryY=1;entryDx=0;entryDy=0;labelBackgroundColor=default;strokeColor=default;align=center;verticalAlign=middle;fontFamily=Helvetica;fontSize=12;fontColor=default;endArrow=none;" edge="1" parent="1" source="Bia6g73SPW5gVTmrHwiR-167" target="Bia6g73SPW5gVTmrHwiR-173">
          <mxGeometry relative="1" as="geometry" />
        </mxCell>
        <mxCell id="Bia6g73SPW5gVTmrHwiR-167" value="LÃ­neas de pedido" style="rounded=0;whiteSpace=wrap;html=1;fillColor=default;" vertex="1" parent="1">
          <mxGeometry x="1790" y="655" width="110" height="50" as="geometry" />
        </mxCell>
        <mxCell id="Bia6g73SPW5gVTmrHwiR-170" value="1,n" style="text;html=1;strokeColor=none;fillColor=none;align=center;verticalAlign=middle;whiteSpace=wrap;rounded=0;fontSize=12;fontFamily=Helvetica;fontColor=default;" vertex="1" parent="1">
          <mxGeometry x="1710" y="680" width="60" height="30" as="geometry" />
        </mxCell>
        <mxCell id="Bia6g73SPW5gVTmrHwiR-171" value="1,1" style="text;html=1;strokeColor=none;fillColor=none;align=center;verticalAlign=middle;whiteSpace=wrap;rounded=0;fontSize=12;fontFamily=Helvetica;fontColor=default;" vertex="1" parent="1">
          <mxGeometry x="1560" y="615" width="60" height="30" as="geometry" />
        </mxCell>
        <mxCell id="Bia6g73SPW5gVTmrHwiR-172" value="1:N" style="text;html=1;strokeColor=none;fillColor=none;align=center;verticalAlign=middle;whiteSpace=wrap;rounded=0;fontSize=12;fontFamily=Helvetica;fontColor=default;" vertex="1" parent="1">
          <mxGeometry x="1605" y="720" width="60" height="30" as="geometry" />
        </mxCell>
        <mxCell id="Bia6g73SPW5gVTmrHwiR-176" style="edgeStyle=none;shape=connector;rounded=0;orthogonalLoop=1;jettySize=auto;html=1;exitX=0.5;exitY=0;exitDx=0;exitDy=0;entryX=0.5;entryY=1;entryDx=0;entryDy=0;labelBackgroundColor=default;strokeColor=default;align=center;verticalAlign=middle;fontFamily=Helvetica;fontSize=12;fontColor=default;endArrow=none;" edge="1" parent="1" source="Bia6g73SPW5gVTmrHwiR-173">
          <mxGeometry relative="1" as="geometry">
            <mxPoint x="1910" y="510" as="targetPoint" />
          </mxGeometry>
        </mxCell>
        <mxCell id="Bia6g73SPW5gVTmrHwiR-173" value="Contiene" style="rhombus;whiteSpace=wrap;html=1;" vertex="1" parent="1">
          <mxGeometry x="1860" y="540" width="100" height="60" as="geometry" />
        </mxCell>
        <mxCell id="Bia6g73SPW5gVTmrHwiR-178" value="" style="edgeStyle=none;shape=connector;rounded=0;orthogonalLoop=1;jettySize=auto;html=1;labelBackgroundColor=default;strokeColor=default;align=center;verticalAlign=middle;fontFamily=Helvetica;fontSize=12;fontColor=default;endArrow=none;exitX=0.5;exitY=1;exitDx=0;exitDy=0;" edge="1" parent="1" source="Bia6g73SPW5gVTmrHwiR-177" target="Bia6g73SPW5gVTmrHwiR-173">
          <mxGeometry relative="1" as="geometry" />
        </mxCell>
        <mxCell id="Bia6g73SPW5gVTmrHwiR-188" style="edgeStyle=none;shape=connector;rounded=0;orthogonalLoop=1;jettySize=auto;html=1;exitX=0.25;exitY=0;exitDx=0;exitDy=0;entryX=0.5;entryY=1;entryDx=0;entryDy=0;labelBackgroundColor=default;strokeColor=default;align=center;verticalAlign=middle;fontFamily=Helvetica;fontSize=12;fontColor=default;endArrow=none;" edge="1" parent="1" source="Bia6g73SPW5gVTmrHwiR-177" target="Bia6g73SPW5gVTmrHwiR-179">
          <mxGeometry relative="1" as="geometry" />
        </mxCell>
        <mxCell id="Bia6g73SPW5gVTmrHwiR-189" style="edgeStyle=none;shape=connector;rounded=0;orthogonalLoop=1;jettySize=auto;html=1;exitX=0.5;exitY=0;exitDx=0;exitDy=0;entryX=0.5;entryY=1;entryDx=0;entryDy=0;labelBackgroundColor=default;strokeColor=default;align=center;verticalAlign=middle;fontFamily=Helvetica;fontSize=12;fontColor=default;endArrow=none;" edge="1" parent="1" source="Bia6g73SPW5gVTmrHwiR-177" target="Bia6g73SPW5gVTmrHwiR-183">
          <mxGeometry relative="1" as="geometry" />
        </mxCell>
        <mxCell id="Bia6g73SPW5gVTmrHwiR-190" style="edgeStyle=none;shape=connector;rounded=0;orthogonalLoop=1;jettySize=auto;html=1;exitX=0.75;exitY=0;exitDx=0;exitDy=0;entryX=0;entryY=0.5;entryDx=0;entryDy=0;labelBackgroundColor=default;strokeColor=default;align=center;verticalAlign=middle;fontFamily=Helvetica;fontSize=12;fontColor=default;endArrow=none;" edge="1" parent="1" source="Bia6g73SPW5gVTmrHwiR-177" target="Bia6g73SPW5gVTmrHwiR-184">
          <mxGeometry relative="1" as="geometry" />
        </mxCell>
        <mxCell id="Bia6g73SPW5gVTmrHwiR-191" style="edgeStyle=none;shape=connector;rounded=0;orthogonalLoop=1;jettySize=auto;html=1;exitX=1;exitY=0;exitDx=0;exitDy=0;entryX=0;entryY=0.5;entryDx=0;entryDy=0;labelBackgroundColor=default;strokeColor=default;align=center;verticalAlign=middle;fontFamily=Helvetica;fontSize=12;fontColor=default;endArrow=none;" edge="1" parent="1" source="Bia6g73SPW5gVTmrHwiR-177" target="Bia6g73SPW5gVTmrHwiR-185">
          <mxGeometry relative="1" as="geometry" />
        </mxCell>
        <mxCell id="Bia6g73SPW5gVTmrHwiR-192" style="edgeStyle=none;shape=connector;rounded=0;orthogonalLoop=1;jettySize=auto;html=1;exitX=1;exitY=0.25;exitDx=0;exitDy=0;entryX=0;entryY=0.5;entryDx=0;entryDy=0;labelBackgroundColor=default;strokeColor=default;align=center;verticalAlign=middle;fontFamily=Helvetica;fontSize=12;fontColor=default;endArrow=none;" edge="1" parent="1" source="Bia6g73SPW5gVTmrHwiR-177" target="Bia6g73SPW5gVTmrHwiR-186">
          <mxGeometry relative="1" as="geometry" />
        </mxCell>
        <mxCell id="Bia6g73SPW5gVTmrHwiR-193" style="edgeStyle=none;shape=connector;rounded=0;orthogonalLoop=1;jettySize=auto;html=1;exitX=1;exitY=0.5;exitDx=0;exitDy=0;entryX=0;entryY=0.5;entryDx=0;entryDy=0;labelBackgroundColor=default;strokeColor=default;align=center;verticalAlign=middle;fontFamily=Helvetica;fontSize=12;fontColor=default;endArrow=none;" edge="1" parent="1" source="Bia6g73SPW5gVTmrHwiR-177" target="Bia6g73SPW5gVTmrHwiR-187">
          <mxGeometry relative="1" as="geometry" />
        </mxCell>
        <mxCell id="Bia6g73SPW5gVTmrHwiR-177" value="Producto" style="rounded=0;whiteSpace=wrap;html=1;fillColor=default;" vertex="1" parent="1">
          <mxGeometry x="1855" y="460" width="110" height="50" as="geometry" />
        </mxCell>
        <mxCell id="Bia6g73SPW5gVTmrHwiR-179" value="ID producto" style="ellipse;whiteSpace=wrap;html=1;strokeColor=default;align=center;verticalAlign=middle;fontFamily=Helvetica;fontSize=12;fontColor=default;fillColor=default;" vertex="1" parent="1">
          <mxGeometry x="1810" y="345" width="90" height="50" as="geometry" />
        </mxCell>
        <mxCell id="Bia6g73SPW5gVTmrHwiR-183" value="Nombre" style="ellipse;whiteSpace=wrap;html=1;strokeColor=default;align=center;verticalAlign=middle;fontFamily=Helvetica;fontSize=12;fontColor=default;fillColor=default;" vertex="1" parent="1">
          <mxGeometry x="1865" y="310" width="90" height="50" as="geometry" />
        </mxCell>
        <mxCell id="Bia6g73SPW5gVTmrHwiR-184" value="DescripciÃ³n" style="ellipse;whiteSpace=wrap;html=1;strokeColor=default;align=center;verticalAlign=middle;fontFamily=Helvetica;fontSize=12;fontColor=default;fillColor=default;" vertex="1" parent="1">
          <mxGeometry x="1960" y="335" width="90" height="50" as="geometry" />
        </mxCell>
        <mxCell id="Bia6g73SPW5gVTmrHwiR-185" value="Precio Venta" style="ellipse;whiteSpace=wrap;html=1;strokeColor=default;align=center;verticalAlign=middle;fontFamily=Helvetica;fontSize=12;fontColor=default;fillColor=default;" vertex="1" parent="1">
          <mxGeometry x="2010" y="380" width="90" height="50" as="geometry" />
        </mxCell>
        <mxCell id="Bia6g73SPW5gVTmrHwiR-186" value="NÂºunidades" style="ellipse;whiteSpace=wrap;html=1;strokeColor=default;align=center;verticalAlign=middle;fontFamily=Helvetica;fontSize=12;fontColor=default;fillColor=default;" vertex="1" parent="1">
          <mxGeometry x="2000" y="430" width="90" height="50" as="geometry" />
        </mxCell>
        <mxCell id="Bia6g73SPW5gVTmrHwiR-187" value="Precio" style="ellipse;whiteSpace=wrap;html=1;strokeColor=default;align=center;verticalAlign=middle;fontFamily=Helvetica;fontSize=12;fontColor=default;fillColor=default;" vertex="1" parent="1">
          <mxGeometry x="2000" y="485" width="90" height="50" as="geometry" />
        </mxCell>
        <mxCell id="Bia6g73SPW5gVTmrHwiR-194" value="1,1" style="text;html=1;strokeColor=none;fillColor=none;align=center;verticalAlign=middle;whiteSpace=wrap;rounded=0;fontSize=12;fontFamily=Helvetica;fontColor=default;" vertex="1" parent="1">
          <mxGeometry x="1825" y="600" width="60" height="30" as="geometry" />
        </mxCell>
        <mxCell id="Bia6g73SPW5gVTmrHwiR-195" value="1,n" style="text;html=1;strokeColor=none;fillColor=none;align=center;verticalAlign=middle;whiteSpace=wrap;rounded=0;fontSize=12;fontFamily=Helvetica;fontColor=default;" vertex="1" parent="1">
          <mxGeometry x="1855" y="510" width="60" height="30" as="geometry" />
        </mxCell>
        <mxCell id="Bia6g73SPW5gVTmrHwiR-197" value="1:N" style="text;html=1;strokeColor=none;fillColor=none;align=center;verticalAlign=middle;whiteSpace=wrap;rounded=0;fontSize=12;fontFamily=Helvetica;fontColor=default;" vertex="1" parent="1">
          <mxGeometry x="1950" y="550" width="60" height="30" as="geometry" />
        </mxCell>
      </root>
    </mxGraphModel>
  </diagram>
</mxfile>
